<?xml version="1.0" encoding="UTF-8"?>
<!DOCTYPE svg PUBLIC "-//W3C//DTD SVG 1.1//EN" "http://www.w3.org/Graphics/SVG/1.1/DTD/svg11.dtd">
<svg xmlns="http://www.w3.org/2000/svg" version="1.1" width="181px" height="181px" style="shape-rendering:geometricPrecision; text-rendering:geometricPrecision; image-rendering:optimizeQuality; fill-rule:evenodd; clip-rule:evenodd" xmlns:xlink="http://www.w3.org/1999/xlink">
<g><path style="opacity:0.985" fill="#fefdfd" d="M 76.5,-0.5 C 85.5,-0.5 94.5,-0.5 103.5,-0.5C 145.5,8.83333 171.167,34.5 180.5,76.5C 180.5,85.5 180.5,94.5 180.5,103.5C 171.167,145.5 145.5,171.167 103.5,180.5C 94.5,180.5 85.5,180.5 76.5,180.5C 34.5,171.167 8.83333,145.5 -0.5,103.5C -0.5,94.5 -0.5,85.5 -0.5,76.5C 8.83333,34.5 34.5,8.83333 76.5,-0.5 Z"/></g>
<g><path style="opacity:1" fill="#ec9558" d="M 68.5,34.5 C 67.8333,35.5 67.1667,36.5 66.5,37.5C 67.641,31.7809 65.641,27.7809 60.5,25.5C 59.1508,25.8457 57.8175,26.179 56.5,26.5C 59.1868,24.0261 62.1868,23.8594 65.5,26C 67.1958,28.5875 68.1958,31.4208 68.5,34.5 Z"/></g>
<g><path style="opacity:1" fill="#fef8f4" d="M 66.5,37.5 C 66.5,37.8333 66.5,38.1667 66.5,38.5C 63.5,38.5 60.5,38.5 57.5,38.5C 56.209,38.7373 55.209,38.404 54.5,37.5C 54.2417,33.6331 54.9084,29.9664 56.5,26.5C 57.8175,26.179 59.1508,25.8457 60.5,25.5C 65.641,27.7809 67.641,31.7809 66.5,37.5 Z"/></g>
<g><path style="opacity:1" fill="#ea8943" d="M 80.5,22.5 C 80.5,23.1667 80.5,23.8333 80.5,24.5C 79.4548,26.7701 78.1214,28.7701 76.5,30.5C 76.2593,26.9812 77.5926,24.3145 80.5,22.5 Z"/></g>
<g><path style="opacity:1" fill="#e2eeee" d="M 80.5,24.5 C 80.5,26.8333 80.5,29.1667 80.5,31.5C 78.901,31.7678 77.5676,31.4345 76.5,30.5C 78.1214,28.7701 79.4548,26.7701 80.5,24.5 Z"/></g>
<g><path style="opacity:1" fill="#ec9252" d="M 56.5,26.5 C 54.9084,29.9664 54.2417,33.6331 54.5,37.5C 53.8333,36.1667 53.1667,34.8333 52.5,33.5C 52.7247,30.4542 54.058,28.1209 56.5,26.5 Z"/></g>
<g><path style="opacity:1" fill="#23b3ca" d="M 119.5,47.5 C 117.304,45.4554 114.97,45.1221 112.5,46.5C 110.589,46.5743 109.422,47.5743 109,49.5C 107.921,52.0627 107.421,54.7294 107.5,57.5C 106.5,57.5 105.5,57.5 104.5,57.5C 103.833,57.5 103.167,57.5 102.5,57.5C 101.504,70.6562 101.171,83.9895 101.5,97.5C 98.7533,98.956 95.92,100.289 93,101.5C 87.1056,99.8686 81.2722,98.0352 75.5,96C 74.0267,95.2904 73.3601,94.1238 73.5,92.5C 73.5,74.5 73.5,56.5 73.5,38.5C 73.5,35.8333 73.5,33.1667 73.5,30.5C 74.5,30.5 75.5,30.5 76.5,30.5C 77.5676,31.4345 78.901,31.7678 80.5,31.5C 80.5,29.1667 80.5,26.8333 80.5,24.5C 80.5,23.8333 80.5,23.1667 80.5,22.5C 81.1954,16.2896 84.5287,13.7896 90.5,15C 94.0157,19.895 95.349,25.395 94.5,31.5C 96.5,31.5 98.5,31.5 100.5,31.5C 99.9652,24.8262 101.132,18.4929 104,12.5C 104.671,11.7476 105.504,11.4142 106.5,11.5C 109.102,10.0313 111.269,10.698 113,13.5C 115.001,19.6731 115.834,26.0064 115.5,32.5C 116.833,32.5 118.167,32.5 119.5,32.5C 119.5,37.5 119.5,42.5 119.5,47.5 Z"/></g>
<g><path style="opacity:1" fill="#e98e4c" d="M 82.5,22.5 C 82.5,21.8333 82.8333,21.5 83.5,21.5C 88.9778,22.4076 91.6445,25.7409 91.5,31.5C 90.8333,31.5 90.1667,31.5 89.5,31.5C 89.762,26.3151 87.4287,23.3151 82.5,22.5 Z"/></g>
<g><path style="opacity:1" fill="#f1f7f7" d="M 82.5,22.5 C 87.4287,23.3151 89.762,26.3151 89.5,31.5C 88.791,32.404 87.791,32.7373 86.5,32.5C 84.8561,32.7135 83.3561,32.3802 82,31.5C 81.5046,28.4686 81.6713,25.4686 82.5,22.5 Z"/></g>
<g><path style="opacity:1" fill="#f8f9f8" d="M 92.5,31.5 C 92.1667,31.5 91.8333,31.5 91.5,31.5C 91.6445,25.7409 88.9778,22.4076 83.5,21.5C 85.2881,13.8571 88.1214,13.5237 92,20.5C 92.4986,24.1516 92.6653,27.8183 92.5,31.5 Z"/></g>
<g><path style="opacity:1" fill="#f8fcfc" d="M 106.5,11.5 C 109.019,11.8477 110.853,13.1811 112,15.5C 113.271,20.7539 113.771,26.0873 113.5,31.5C 109.833,31.5 106.167,31.5 102.5,31.5C 101.645,24.2983 102.979,17.6316 106.5,11.5 Z"/></g>
<g><path style="opacity:1" fill="#008ea7" d="M 89.5,31.5 C 90.1667,31.5 90.8333,31.5 91.5,31.5C 91.8333,31.5 92.1667,31.5 92.5,31.5C 92.6743,54.1738 92.841,76.8405 93,99.5C 90.921,95.0074 88.5877,90.674 86,86.5C 86.1932,68.5101 86.3599,50.5101 86.5,32.5C 87.791,32.7373 88.791,32.404 89.5,31.5 Z"/></g>
<g><path style="opacity:1" fill="#f48d16" d="M 52.5,33.5 C 53.1667,34.8333 53.8333,36.1667 54.5,37.5C 55.209,38.404 56.209,38.7373 57.5,38.5C 57.5,52.8333 57.5,67.1667 57.5,81.5C 53.8006,84.3497 49.8006,86.683 45.5,88.5C 45.5,71.5 45.5,54.5 45.5,37.5C 47.8333,37.5 50.1667,37.5 52.5,37.5C 52.5,36.1667 52.5,34.8333 52.5,33.5 Z"/></g>
<g><path style="opacity:1" fill="#e46f17" d="M 57.5,38.5 C 60.5,38.5 63.5,38.5 66.5,38.5C 66.3221,56.1808 66.6554,73.8475 67.5,91.5C 67.631,92.2389 67.4643,92.9056 67,93.5C 64.3501,89.0251 61.1834,85.0251 57.5,81.5C 57.5,67.1667 57.5,52.8333 57.5,38.5 Z"/></g>
<g><path style="opacity:1" fill="#f48c18" d="M 68.5,34.5 C 68.5,35.8333 68.5,37.1667 68.5,38.5C 70.1667,38.5 71.8333,38.5 73.5,38.5C 73.5,56.5 73.5,74.5 73.5,92.5C 72.1667,92.8333 70.8333,93.1667 69.5,93.5C 68.8333,92.8333 68.1667,92.1667 67.5,91.5C 66.6554,73.8475 66.3221,56.1808 66.5,38.5C 66.5,38.1667 66.5,37.8333 66.5,37.5C 67.1667,36.5 67.8333,35.5 68.5,34.5 Z"/></g>
<g><path style="opacity:1" fill="#fbfcf8" d="M 138.5,48.5 C 138.5,51.8333 138.5,55.1667 138.5,58.5C 135.167,58.5 131.833,58.5 128.5,58.5C 128.234,54.3951 128.734,50.3951 130,46.5C 133.626,43.6144 136.459,44.2811 138.5,48.5 Z"/></g>
<g><path style="opacity:1" fill="#0db4c8" d="M 112.5,46.5 C 114.722,46.178 116.556,46.8446 118,48.5C 119.289,51.3508 119.789,54.3508 119.5,57.5C 117.565,58.1495 115.565,58.4828 113.5,58.5C 112.167,58.5 110.833,58.5 109.5,58.5C 109.032,54.0585 110.032,50.0585 112.5,46.5 Z"/></g>
<g><path style="opacity:1" fill="#6ab064" d="M 112.5,46.5 C 110.032,50.0585 109.032,54.0585 109.5,58.5C 107.585,58.7845 105.919,58.4511 104.5,57.5C 105.5,57.5 106.5,57.5 107.5,57.5C 107.421,54.7294 107.921,52.0627 109,49.5C 109.422,47.5743 110.589,46.5743 112.5,46.5 Z"/></g>
<g><path style="opacity:1" fill="#8dc53b" d="M 102.5,57.5 C 103.167,57.5 103.833,57.5 104.5,57.5C 105.919,58.4511 107.585,58.7845 109.5,58.5C 110.833,58.5 112.167,58.5 113.5,58.5C 113.708,71.1892 113.374,83.8559 112.5,96.5C 109.518,98.4742 106.518,100.474 103.5,102.5C 102.501,87.5148 102.167,72.5148 102.5,57.5 Z"/></g>
<g><path style="opacity:1" fill="#a1c476" d="M 139.5,48.5 C 139.167,48.5 138.833,48.5 138.5,48.5C 136.459,44.2811 133.626,43.6144 130,46.5C 128.734,50.3951 128.234,54.3951 128.5,58.5C 125.391,58.7359 122.391,58.4025 119.5,57.5C 119.789,54.3508 119.289,51.3508 118,48.5C 116.556,46.8446 114.722,46.178 112.5,46.5C 114.97,45.1221 117.304,45.4554 119.5,47.5C 120.787,50.698 121.453,54.0314 121.5,57.5C 123.167,57.5 124.833,57.5 126.5,57.5C 125.888,51.8356 127.554,47.0023 131.5,43C 136.053,42.1089 138.72,43.9422 139.5,48.5 Z"/></g>
<g><path style="opacity:1" fill="#7aa32c" d="M 119.5,57.5 C 119.83,73.6754 119.496,89.6754 118.5,105.5C 116.735,102.291 114.735,99.2911 112.5,96.5C 113.374,83.8559 113.708,71.1892 113.5,58.5C 115.565,58.4828 117.565,58.1495 119.5,57.5 Z"/></g>
<g><path style="opacity:1" fill="#8ec63d" d="M 138.5,48.5 C 138.833,48.5 139.167,48.5 139.5,48.5C 140.324,51.7644 140.658,55.0977 140.5,58.5C 141.833,58.5 143.167,58.5 144.5,58.5C 144.882,70.5182 145.548,82.5182 146.5,94.5C 146.167,95.5 145.833,96.5 145.5,97.5C 137.479,100.846 129.479,104.179 121.5,107.5C 119.973,107.573 118.973,106.906 118.5,105.5C 119.496,89.6754 119.83,73.6754 119.5,57.5C 122.391,58.4025 125.391,58.7359 128.5,58.5C 131.833,58.5 135.167,58.5 138.5,58.5C 138.5,55.1667 138.5,51.8333 138.5,48.5 Z"/></g>
<g><path style="opacity:1" fill="#e9e7e4" d="M 45.5,37.5 C 45.5,54.5 45.5,71.5 45.5,88.5C 45.62,89.5862 46.2867,90.2528 47.5,90.5C 52.8638,91.5603 58.1972,92.7269 63.5,94C 65.7116,94.7891 67.7116,94.6225 69.5,93.5C 70.8333,93.1667 72.1667,92.8333 73.5,92.5C 73.3601,94.1238 74.0267,95.2904 75.5,96C 81.2722,98.0352 87.1056,99.8686 93,101.5C 95.92,100.289 98.7533,98.956 101.5,97.5C 101.338,99.5273 101.505,101.527 102,103.5C 103.302,104.085 104.469,104.751 105.5,105.5C 76.6329,100.746 47.9663,95.2458 19.5,89C 27.7736,86.5184 36.107,84.3517 44.5,82.5C 44.1706,67.324 44.5039,52.324 45.5,37.5 Z"/></g>
<g><path style="opacity:1" fill="#f4a122" d="M 57.5,81.5 C 61.1834,85.0251 64.3501,89.0251 67,93.5C 67.4643,92.9056 67.631,92.2389 67.5,91.5C 68.1667,92.1667 68.8333,92.8333 69.5,93.5C 67.7116,94.6225 65.7116,94.7891 63.5,94C 58.1972,92.7269 52.8638,91.5603 47.5,90.5C 46.2867,90.2528 45.62,89.5862 45.5,88.5C 49.8006,86.683 53.8006,84.3497 57.5,81.5 Z"/></g>
<g><path style="opacity:1" fill="#98ce72" d="M 102.5,57.5 C 102.167,72.5148 102.501,87.5148 103.5,102.5C 106.518,100.474 109.518,98.4742 112.5,96.5C 114.735,99.2911 116.735,102.291 118.5,105.5C 118.973,106.906 119.973,107.573 121.5,107.5C 121.265,108.097 120.765,108.43 120,108.5C 115.306,106.795 110.473,105.795 105.5,105.5C 104.469,104.751 103.302,104.085 102,103.5C 101.505,101.527 101.338,99.5273 101.5,97.5C 101.171,83.9895 101.504,70.6562 102.5,57.5 Z"/></g>
<g><path style="opacity:1" fill="#d9863f" d="M 24.5,116.5 C 27.1873,116.336 29.854,116.503 32.5,117C 35.3127,119.536 35.146,121.703 32,123.5C 31.5,123.167 31,122.833 30.5,122.5C 31.8002,117.429 30.3002,116.429 26,119.5C 25.8379,123.378 27.5046,126.378 31,128.5C 35.1332,136.234 32.7999,140.901 24,142.5C 18.4471,141.938 16.4471,138.938 18,133.5C 20.0243,131.116 22.1909,130.949 24.5,133C 20.326,134.508 19.6593,136.841 22.5,140C 26.8118,140.017 28.6452,137.85 28,133.5C 26,130.833 24,128.167 22,125.5C 20.9302,121.858 21.7636,118.858 24.5,116.5 Z"/></g>
<g><path style="opacity:1" fill="#d98740" d="M 98.5,116.5 C 101.187,116.336 103.854,116.503 106.5,117C 108.229,118.789 108.896,120.956 108.5,123.5C 107.127,123.657 105.793,123.49 104.5,123C 106.428,118.73 105.261,117.23 101,118.5C 100.333,120.5 100.333,122.5 101,124.5C 105.501,127.826 107.501,132.159 107,137.5C 103.975,141.921 99.8082,143.421 94.5,142C 90.9905,138.952 90.6572,135.619 93.5,132C 95.2588,131.202 96.9255,131.369 98.5,132.5C 95.4944,134.357 94.8277,136.857 96.5,140C 100.293,141.052 102.293,139.552 102.5,135.5C 100.96,131.787 98.793,128.453 96,125.5C 94.9271,121.9 95.7605,118.9 98.5,116.5 Z"/></g>
<g><path style="opacity:1" fill="#da8a44" d="M 64.5,118.5 C 66.1992,118.34 67.8659,118.506 69.5,119C 67.9,125.43 66.5667,131.93 65.5,138.5C 66.8221,138.67 67.9887,138.337 69,137.5C 69.4513,132.43 71.618,128.264 75.5,125C 77.5,124.333 79.5,124.333 81.5,125C 82.935,130.752 80.6017,133.919 74.5,134.5C 74.5,135.833 74.5,137.167 74.5,138.5C 76.4672,138.739 78.3005,138.406 80,137.5C 80.5074,138.996 80.0074,140.163 78.5,141C 75.3307,141.978 72.4973,141.478 70,139.5C 67.0286,141.634 63.862,141.967 60.5,140.5C 59.2054,141.098 57.8721,141.598 56.5,142C 56.151,146.56 53.8176,149.394 49.5,150.5C 44.6312,148.706 44.2979,146.206 48.5,143C 46.714,142.215 45.214,141.049 44,139.5C 41.5185,141.314 38.6852,141.98 35.5,141.5C 35.5139,134.722 36.3472,128.055 38,121.5C 39.4007,119.808 41.2341,119.141 43.5,119.5C 43.7135,121.144 43.3802,122.644 42.5,124C 45.0515,125.516 44.7181,126.349 41.5,126.5C 40.9619,130.524 40.2952,134.524 39.5,138.5C 40.9778,138.762 42.3112,138.429 43.5,137.5C 44.6587,133.199 45.6587,128.866 46.5,124.5C 48.1667,124.5 49.8333,124.5 51.5,124.5C 50.6306,127.78 49.9639,131.113 49.5,134.5C 49.6265,139.452 50.7931,139.785 53,135.5C 53.6667,132.167 54.3333,128.833 55,125.5C 56.3561,124.62 57.8561,124.286 59.5,124.5C 59.1514,128.382 58.4847,132.215 57.5,136C 57.8333,137.167 58.1667,138.333 58.5,139.5C 61.5765,132.869 63.5765,125.869 64.5,118.5 Z"/></g>
<g><path style="opacity:1" fill="#d9863f" d="M 112.5,119.5 C 114.167,119.5 115.833,119.5 117.5,119.5C 117.318,121.591 117.652,123.591 118.5,125.5C 117.675,126.386 116.675,126.719 115.5,126.5C 115.167,130.5 114.833,134.5 114.5,138.5C 115.822,138.67 116.989,138.337 118,137.5C 119.412,133.272 120.246,128.939 120.5,124.5C 122.766,124.141 124.599,124.808 126,126.5C 129.95,123.392 131.783,124.392 131.5,129.5C 129.516,129.617 127.85,128.95 126.5,127.5C 125.914,127.709 125.414,128.043 125,128.5C 123.843,132.782 123.01,137.116 122.5,141.5C 118.392,141.198 114.225,140.864 110,140.5C 110.111,133.437 110.944,126.437 112.5,119.5 Z"/></g>
<g><path style="opacity:1" fill="#da8944" d="M 161.5,119.5 C 162.833,119.5 164.167,119.5 165.5,119.5C 165.318,121.591 165.652,123.591 166.5,125.5C 165.273,126.59 164.44,127.924 164,129.5C 162.716,133.724 162.216,137.891 162.5,142C 159.702,142.561 157.869,141.394 157,138.5C 154.088,141.544 150.588,142.711 146.5,142C 145.299,141.097 144.465,139.931 144,138.5C 141.088,141.544 137.588,142.711 133.5,142C 130.843,137.181 131.009,132.347 134,127.5C 136.317,124.903 139.15,124.07 142.5,125C 144.431,130.636 142.431,133.802 136.5,134.5C 136.5,136.167 136.5,137.833 136.5,139.5C 139.505,139.747 142.005,138.747 144,136.5C 144.247,131.498 146.414,127.665 150.5,125C 154.202,123.607 156.202,124.774 156.5,128.5C 156.038,132.578 153.705,134.578 149.5,134.5C 149.5,136.167 149.5,137.833 149.5,139.5C 153.025,139.654 155.859,138.321 158,135.5C 158.85,130.055 160.017,124.722 161.5,119.5 Z"/></g>
<g><path style="opacity:1" fill="#fbf3ec" d="M 77.5,126.5 C 78.5862,126.62 79.2528,127.287 79.5,128.5C 78.9524,130.556 77.7858,132.223 76,133.5C 75.3911,130.935 75.8911,128.601 77.5,126.5 Z"/></g>
<g><path style="opacity:1" fill="#f9ebe0" d="M 139.5,126.5 C 141.768,129.117 141.101,131.45 137.5,133.5C 136.633,130.857 137.3,128.523 139.5,126.5 Z"/></g>
<g><path style="opacity:1" fill="#f9ece1" d="M 152.5,126.5 C 154.768,129.117 154.101,131.45 150.5,133.5C 149.633,130.857 150.3,128.523 152.5,126.5 Z"/></g>
<g><path style="opacity:1" fill="#f7e5d6" d="M 48.5,144.5 C 50.0481,144.821 50.7148,145.821 50.5,147.5C 47.7524,147.598 47.0857,146.598 48.5,144.5 Z"/></g>
</svg>
